# xmcd
#
# Track frame offsets:
#	182
#	8252
#	21585
#	33707
#	45972
#	60305
#	73547
#	98055
#	112235
#	128010
#	139082
#	152570
#	166062
#	178767
#
# Disc length: 2556
#
# Revision: 5
# Processed by: cddbd v1.5.1PL0 Copyright (c) Steve Scherf et al.
# Submitted via: Grip 2.94
# Normalized: r3:TSWAP
#
DISCID=ad09fa0e
DTITLE=Various Artist - Feelin' blues
DYEAR=1900
DGENRE=
TTITLE0=Big Joe Williams - Baby Please Don't Go
TTITLE1=Leadbelly - Backwater Blues
TTITLE2=Elmore James - Mean Mistreatin' Mama
TTITLE3=Little Walter - Last Night
TTITLE4=Howlin' Wolf - I walked from Dallas
TTITLE5=Muddy Waters - She moves me
TTITLE6=John Lee Hooker - My first wife left me
TTITLE7=Sonny Boy Williamson - Help me
TTITLE8=Lightning Hopkins - Coffee for Mama
TTITLE9=Big Joe Williams - Sinking Blues
TTITLE10=Little Walter - Can't hold on much longer
TTITLE11=John Lee Hooker - Ground Hog Blues
TTITLE12=Howlin' Wolf - Back Door Mar
TTITLE13=Muddy Waters - Mannish Boy
EXTD=
EXTT0=
EXTT1=
EXTT2=
EXTT3=
EXTT4=
EXTT5=
EXTT6=
EXTT7=
EXTT8=
EXTT9=
EXTT10=
EXTT11=
EXTT12=
EXTT13=
PLAYORDER=
